<?xml version="1.0" encoding="utf-8"?>
<!-- Generator: Adobe Illustrator 24.0.2, SVG Export Plug-In . SVG Version: 6.00 Build 0)  -->
<svg version="1.1" id="Capa_1" xmlns:sketch="http://www.bohemiancoding.com/sketch/ns"
	 xmlns="http://www.w3.org/2000/svg" xmlns:xlink="http://www.w3.org/1999/xlink" x="0px" y="0px" viewBox="0 0 16 14"
	 style="enable-background:new 0 0 16 14;" xml:space="preserve">
<style type="text/css">
	.st0{fill-rule:evenodd;clip-rule:evenodd;fill:#FFFFFF;}
</style>
<g id="Map-and-Location">
	<path id="car" class="st0" d="M13.5,1c0,0-0.5-1-1.5-1H4C3,0,2.5,1,2.5,1L0,7v4h16V7L13.5,1z M4,1C3.6,1,3.4,1.4,3.4,1.4L1.5,6h13
		l-1.9-4.6c0,0-0.2-0.4-0.6-0.4L4,1z M2,14c1.1,0,2-0.9,2-2H0C0,13.1,0.9,14,2,14z M14,14c1.1,0,2-0.9,2-2h-4C12,13.1,12.9,14,14,14
		z M2.5,10C3.3,10,4,9.3,4,8.5S3.3,7,2.5,7S1,7.7,1,8.5S1.7,10,2.5,10z M13.5,10c0.8,0,1.5-0.7,1.5-1.5S14.3,7,13.5,7S12,7.7,12,8.5
		S12.7,10,13.5,10z M0,11.5V12h16v-0.5H0z"/>
</g>
</svg>
